<?xml version="1.0" standalone="no"?><!DOCTYPE svg PUBLIC "-//W3C//DTD SVG 1.1//EN" "http://www.w3.org/Graphics/SVG/1.1/DTD/svg11.dtd" ><svg xmlns="http://www.w3.org/2000/svg"><metadata></metadata><defs><font id="Google:Roboto Medium Italic:2016" horiz-adv-x="1913"><font-face font-family="Roboto Medium" font-weight="500" font-stretch="normal" units-per-em="2048" panose-1="2 0 0 0 0 0 0 0 0 0" ascent="1900" descent="-500" x-height="0" bbox="-245 -465 1926 1855" underline-thickness="100" underline-position="-150" unicode-range="U+0021-2122" /><missing-glyph horiz-adv-x="918" d="M100 0 l0 1456 l708 0 l0 -1456 l-708 0 ZM194 1402 l258 -606 l257 606 l-515 0 ZM480 728 l274 -644 l0 1288 l-274 -644 ZM154 1360 l0 -1264 l268 632 l-268 632 ZM194 54 l515 0 l-257 606 l-258 -606 Z" /><glyph glyph-name="exclam" unicode="!" d="M545 1456 l-202 -1027 l-203 0 l153 1027 l252 0 ZM56 112 q-1 58 37 96.5 q38 38.5 96 39.5 q56 1 95 -34.5 q39 -35.5 39 -93.5 q0 -58 -37.5 -96 q-37.5 -38 -95.5 -39 q-56 -2 -95 34 q-39 36 -39 93 Z" /><glyph glyph-name="quotedbl" unicode="&quot;" d="M392 1387 l-93 -374 l-138 0 l83 523 l171 0 l-23 -149 ZM684 1387 l-93 -374 l-138 0 l83 523 l171 0 l-23 -149 Z" /><glyph glyph-name="numbersign" unicode="#" d="M517 0 l146 410 l-211 0 l-146 -410 l-169 0 l146 410 l-223 0 l28 158 l250 0 l112 313 l-234 0 l28 159 l262 0 l148 416 l169 0 l-149 -416 l211 0 l148 416 l170 0 l-148 -416 l199 0 l-28 -159 l-227 0 l-111 -313 l212 0 l-28 -158 l-240 0 l-146 -410 l-169 0 ZM507 568 l211 0 l111 313 l-210 0 l-112 -313 Z" /><glyph glyph-name="dollar" unicode="$" d="M996 390 q-13 -186 -136.5 -286.5 q-123.5 -100.5 -298.5 -120.5 l-36 -195 l-156 0 l37 197 q-182 28 -262.5 156 q-80.5 128 -72.5 304 l237 -1 q-6 -103 35.5 -182.5 q41.5 -79.5 158.5 -82.5 q98 -2 172.5 53 q74.5 55 86.5 156 q12 97 -46 150 q-58 53 -139 86 q-151 63 -256.5 162 q-105.5 99 -92.5 280 q12 179 130 283 q118 104 289 124 l40 219 l156 0 l-41 -223 q172 -35 235 -170 q63 -135 54 -294 l-236 0 q5 88 -23 178.5 q-28 90.5 -139 93.5 q-96 3 -157.5 -56 q-61.5 -59 -72.5 -153 q-11 -98 48 -149 q59 -51 141 -86 q150 -65 253.5 -164.5 q103.5 -99.5 91.5 -278.5 Z" /><glyph glyph-name="percent" unicode="%" d="M186 1099 l5 75 q13 134 105 220 q92 86 228 83 q129 -3 203 -88.5 q74 -85.5 66 -212.5 l-6 -77 q-14 -132 -105 -217 q-91 -85 -226 -82 q-128 3 -202.5 88 q-74.5 85 -67.5 211 ZM361 1176 l-9 -79 q-5 -57 19.5 -103.5 q24.5 -46.5 88.5 -48.5 q68 -2 108.5 45.5 q40.5 47.5 49.5 108.5 l9 78 q5 56 -18 104.5 q-23 48.5 -89 50.5 q-67 2 -108.5 -46 q-41.5 -48 -50.5 -110 ZM1249 1238 l-879 -1127 l-120 80 l879 1127 l120 -80 ZM723 279 l7 78 q12 132 104 218 q92 86 227 83 q130 -3 203.5 -88.5 q73.5 -85.5 65.5 -212.5 l-7 -78 q-13 -132 -103.5 -218 q-90.5 -86 -226.5 -83 q-128 3 -202.5 89 q-74.5 86 -67.5 212 ZM898 357 l-9 -80 q-5 -56 20 -103.5 q25 -47.5 88 -49.5 q70 -2 110 45 q40 47 49 110 l9 79 q5 57 -19 105 q-24 48 -89 49 q-67 2 -108.5 -45.5 q-41.5 -47.5 -50.5 -109.5 Z" /><glyph glyph-name="ampersand" unicode="&amp;" d="M899 0 l-61 96 q-176 -119 -374 -115 q-178 3 -302 110 q-124 107 -111 295 q10 145 110.5 236 q100.5 91 214.5 161 q-39 75 -71 152.5 q-32 77.5 -26 163.5 q12 170 126 275.5 q114 105.5 285 101.5 q135 -3 231 -89.5 q96 -86.5 88 -226.5 q-6 -112 -73 -191 q-67 -79 -155 -138 l-121 -80 l213 -325 q84 124 104 268 l204 0 q-11 -125 -55 -237.5 q-44 -112.5 -130 -205.5 l161 -251 l-258 0 ZM497 1105 q-7 -55 14 -105.5 q21 -50.5 47 -96.5 l95 59 q54 34 96 78 q42 44 49 112 q6 57 -29.5 93.5 q-35.5 36.5 -92.5 36.5 q-75 1 -122.5 -53 q-47.5 -54 -56.5 -124 ZM292 394 q-12 -95 40 -156 q52 -61 147 -63 q67 -1 127 24 q60 25 115 59 l-239 374 l-35 -23 q-54 -39 -99.5 -93 q-45.5 -54 -55.5 -122 Z" /><glyph glyph-name="quotesingle" unicode="&#39;" d="M385 1399 l-83 -379 l-157 0 l81 516 l180 0 l-21 -137 Z" /><glyph glyph-name="parenleft" unicode="(" d="M121 571 l3 17 q28 195 104.5 403.5 q76.5 208.5 207.5 381.5 q131 173 324 259 l36 -144 q-210 -162 -313.5 -401 q-103.5 -239 -141.5 -494 l-3 -20 q-20 -137 -23.5 -308.5 q-3.5 -171.5 38 -331.5 q41.5 -160 157.5 -263 l-56 -133 q-164 102 -243 280.5 q-79 178.5 -96 380.5 q-17 202 6 373 Z" /><glyph glyph-name="parenright" unicode=")" d="M575 597 l-2 -16 q-28 -196 -106 -405 q-78 -209 -211.5 -382 q-133.5 -173 -326.5 -259 l-37 138 q211 163 314.5 405 q103.5 242 141.5 497 l3 20 q19 136 22.5 307.5 q3.5 171.5 -38.5 332 q-42 160.5 -157 263.5 l57 133 q165 -101 245.5 -279.5 q80.5 -178.5 99 -380.5 q18.5 -202 -4.5 -374 Z" /><glyph glyph-name="asterisk" unicode="*" d="M139 710 l244 267 l-279 88 l79 162 l278 -120 l47 350 l175 0 l-75 -345 l302 112 l24 -179 l-318 -88 l150 -272 l-148 -97 l-126 289 l-219 -277 l-134 110 Z" /><glyph glyph-name="plus" unicode="+" d="M1032 580 l-369 0 l-75 -434 l-230 0 l76 434 l-371 0 l39 221 l370 0 l70 405 l230 0 l-71 -405 l370 0 l-39 -221 Z" /><glyph glyph-name="comma" unicode="," d="M276 235 l-27 -171 q-18 -117 -81.5 -218.5 q-63.5 -101.5 -155.5 -174.5 l-130 80 q51 71 92.5 143.5 q41.5 72.5 57.5 159.5 l32 181 l212 0 Z" /><glyph glyph-name="hyphen" unicode="-" d="M600 717 l-35 -195 l-511 0 l35 195 l511 0 Z" /><glyph glyph-name="period" unicode="." d="M49 118 q0 60 38.5 99.5 q38.5 39.5 98.5 40.5 q58 2 98 -35.5 q40 -37.5 40 -96.5 q1 -59 -38.5 -98.5 q-39.5 -39.5 -98.5 -40.5 q-59 -2 -98.5 35 q-39.5 37 -39.5 96 Z" /><glyph glyph-name="slash" unicode="/" d="M899 1456 l-831 -1581 l-197 0 l831 1581 l197 0 Z" /><glyph glyph-name="zero" unicode="0" d="M1067 849 l-35 -234 q-24 -159 -83 -306.5 q-59 -147.5 -172.5 -240.5 q-113.5 -93 -299.5 -88 q-178 4 -263 101 q-85 97 -105 241.5 q-20 144.5 -2 291.5 l35 235 q23 159 83 304.5 q60 145.5 174 236.5 q114 91 298 86 q178 -4 263.5 -99 q85.5 -95 105.5 -237.5 q20 -142.5 1 -290.5 ZM791 579 l46 309 q9 70 11 161 q2 91 -31.5 160 q-33.5 69 -132.5 73 q-109 5 -169.5 -58.5 q-60.5 -63.5 -89.5 -157.5 q-29 -94 -40 -179 l-46 -309 q-9 -69 -11.5 -162 q-2.5 -93 31 -165.5 q33.5 -72.5 132.5 -76.5 q109 -5 170 61 q61 66 89.5 162 q28.5 96 40.5 182 Z" /><glyph glyph-name="one" unicode="1" d="M889 1461 l-247 -1461 l-237 0 l202 1165 l-368 -122 l38 215 l576 203 l36 0 Z" /><glyph glyph-name="two" unicode="2" d="M994 195 l-31 -195 l-952 0 l28 178 l530 507 q76 74 161.5 167.5 q85.5 93.5 100.5 206.5 q11 88 -30.5 154.5 q-41.5 66.5 -137.5 69.5 q-123 3 -193.5 -76.5 q-70.5 -79.5 -85.5 -192.5 l-235 -2 q16 211 168 339.5 q152 128.5 360 124.5 q177 -3 295 -104.5 q118 -101.5 103 -288.5 q-14 -166 -129.5 -299.5 q-115.5 -133.5 -229.5 -240.5 l-370 -348 l648 0 Z" /><glyph glyph-name="three" unicode="3" d="M538 646 l-152 1 l30 192 l128 -1 q109 1 190.5 59 q81.5 58 94.5 173 q10 93 -34.5 152 q-44.5 59 -141.5 61 q-96 2 -164 -54.5 q-68 -56.5 -83 -150.5 l-235 -2 q14 191 161 297 q147 106 328 103 q184 -2 302.5 -108 q118.5 -106 104.5 -299 q-8 -118 -87.5 -198.5 q-79.5 -80.5 -180.5 -127.5 q100 -45 146 -132.5 q46 -87.5 39 -194.5 q-14 -210 -169 -325 q-155 -115 -354 -111 q-185 3 -305 112.5 q-120 109.5 -114 299.5 l236 -1 q-3 -95 48.5 -154 q51.5 -59 149.5 -62 q111 -3 186 64 q75 67 87 177 q12 111 -45.5 169 q-57.5 58 -165.5 61 Z" /><glyph glyph-name="four" unicode="4" d="M31 484 l770 972 l252 0 l-163 -936 l177 0 l-34 -195 l-176 0 l-57 -325 l-237 0 l56 325 l-609 0 l21 159 ZM292 520 l361 0 l113 608 l-23 -32 l-451 -576 Z" /><glyph glyph-name="five" unicode="5" d="M381 676 l-192 49 l187 731 l763 0 l-33 -209 l-561 0 l-101 -349 q98 58 220 57 q206 -2 294 -149 q88 -147 72 -333 q-18 -215 -161 -357 q-143 -142 -364 -137 q-184 3 -297 118.5 q-113 115.5 -118 297.5 l229 0 q6 -92 52.5 -154.5 q46.5 -62.5 146.5 -64.5 q129 -3 196.5 93.5 q67.5 96.5 79.5 211.5 q11 106 -34.5 191 q-45.5 85 -164.5 87 q-64 2 -115 -20.5 q-51 -22.5 -99 -62.5 Z" /><glyph glyph-name="six" unicode="6" d="M1028 484 q-19 -210 -159 -359.5 q-140 -149.5 -359 -145.5 q-155 4 -248.5 90 q-93.5 86 -131 216 q-37.5 130 -22.5 266 l12 95 q31 225 131.5 410.5 q100.5 185.5 271 296 q170.5 110.5 413.5 111.5 l33 0 l-20 -201 l-13 1 q-214 2 -347.5 -114.5 q-133.5 -116.5 -204.5 -307.5 q129 125 300 121 q132 -2 211.5 -73.5 q79.5 -71.5 111 -180.5 q31.5 -109 21.5 -225 ZM343 529 q-7 -65 1 -146.5 q8 -81.5 47.5 -142.5 q39.5 -61 127.5 -64 q125 -5 193.5 93.5 q68.5 98.5 80.5 208.5 q10 95 -25.5 192 q-35.5 97 -150.5 100 q-86 2 -154 -46 q-68 -48 -110 -118 l-10 -77 Z" /><glyph glyph-name="seven" unicode="7" d="M1181 1456 l-22 -146 l-765 -1310 l-260 0 l762 1261 l-726 0 l31 195 l980 0 Z" /><glyph glyph-name="eight" unicode="8" d="M991 405 q-14 -206 -165.5 -317.5 q-151.5 -111.5 -348.5 -107.5 q-181 3 -302.5 110 q-121.5 107 -107.5 298 q10 135 91 225 q81 90 198 144 q-153 113 -140 307 q14 195 153.5 305.5 q139.5 110.5 328.5 106.5 q174 -3 284.5 -108.5 q110.5 -105.5 96.5 -286.5 q-9 -120 -80.5 -202 q-71.5 -82 -174.5 -134 q183 -117 167 -340 ZM840 1073 q8 81 -30.5 144 q-38.5 63 -127.5 65 q-98 2 -160 -66 q-62 -68 -72 -161 q-8 -82 30.5 -145.5 q38.5 -63.5 128.5 -64.5 q98 -2 159.5 66.5 q61.5 68.5 71.5 161.5 ZM758 418 q10 94 -37 163 q-47 69 -146 71 q-110 3 -183 -71 q-73 -74 -85 -179 q-11 -96 35.5 -161 q46.5 -65 147.5 -67 q110 -2 183 67.5 q73 69.5 85 176.5 Z" /><glyph glyph-name="nine" unicode="9" d="M1045 805 q-32 -230 -129 -413.5 q-97 -183.5 -266.5 -291 q-169.5 -107.5 -417.5 -108.5 l-25 0 l19 203 l14 -1 q221 -2 351 106 q130 108 194 310 q-59 -57 -131.5 -93.5 q-72.5 -36.5 -157.5 -35.5 q-132 2 -212 73 q-80 71 -113 180.5 q-33 109.5 -22 226.5 q12 139 79 257.5 q67 118.5 179 189.5 q112 71 259 68 q160 -3 250.5 -94 q90.5 -91 122.5 -226 q32 -135 16 -272 l-10 -79 ZM384 968 q-7 -62 4.5 -130.5 q11.5 -68.5 51 -116.5 q39.5 -48 115.5 -51 q83 -2 148 45.5 q65 47.5 107 112.5 l13 97 q7 63 0 145.5 q-7 82.5 -45 145 q-38 62.5 -125 65.5 q-125 4 -191.5 -101 q-66.5 -105 -77.5 -212 Z" /><glyph glyph-name="colon" unicode=":" d="M43 118 q0 60 38.5 99.5 q38.5 39.5 98.5 40.5 q58 2 98 -35.5 q40 -37.5 40 -96.5 q1 -59 -38.5 -98.5 q-39.5 -39.5 -98.5 -40.5 q-59 -2 -98.5 35 q-39.5 37 -39.5 96 ZM190 967 q0 60 38.5 99.5 q38.5 39.5 98.5 40.5 q58 2 98 -35.5 q40 -37.5 40 -96.5 q1 -59 -38.5 -98.5 q-39.5 -39.5 -98.5 -40.5 q-59 -2 -98.5 35 q-39.5 37 -39.5 96 Z" /><glyph glyph-name="semicolon" unicode=";" d="M170 967 q0 60 38.5 99.5 q38.5 39.5 98.5 40.5 q58 2 98 -35.5 q40 -37.5 40 -96.5 q1 -59 -38.5 -98.5 q-39.5 -39.5 -98.5 -40.5 q-59 -2 -98.5 35 q-39.5 37 -39.5 96 ZM293 235 l-27 -171 q-18 -117 -81.5 -218.5 q-63.5 -101.5 -155.5 -174.5 l-130 80 q51 71 92.5 143.5 q41.5 72.5 57.5 159.5 l32 181 l212 0 Z" /><glyph glyph-name="less" unicode="&lt;" d="M800 171 l-750 372 l34 193 l880 372 l-45 -253 l-613 -229 l535 -224 l-41 -231 Z" /><glyph glyph-name="equal" unicode="=" d="M1045 982 l-35 -201 l-839 0 l36 201 l838 0 ZM972 558 l-36 -202 l-838 0 l35 202 l839 0 Z" /><glyph glyph-name="greater" unicode="&gt;" d="M211 1097 l774 -372 l-34 -194 l-903 -372 l44 250 l640 232 l-561 228 l40 228 Z" /><glyph glyph-name="question" unicode="?" d="M537 429 l-218 -1 q12 126 61 215 q49 89 145 171 q66 57 131 120.5 q65 63.5 78 156.5 q10 76 -22 130 q-32 54 -114 56 q-87 2 -141.5 -50 q-54.5 -52 -71.5 -133 l-236 -1 q17 186 149.5 286.5 q132.5 100.5 314.5 96.5 q170 -3 274 -102 q104 -99 90 -275 q-11 -144 -106.5 -242.5 q-95.5 -98.5 -198.5 -183.5 q-111 -90 -135 -244 ZM239 114 q0 58 38 96.5 q38 38.5 96 39.5 q56 1 95 -34.5 q39 -35.5 40 -93.5 q0 -58 -38 -96 q-38 -38 -96 -39 q-56 -2 -95 33.5 q-39 35.5 -40 93.5 Z" /><glyph glyph-name="at" unicode="@" d="M1066 -367 q-80 -50 -178 -68.5 q-98 -18.5 -190 -17.5 q-266 3 -417.5 134 q-151.5 131 -200.5 340 q-49 209 -8 445 q43 245 175.5 466 q132.5 221 340 359 q207.5 138 475.5 134 q259 -3 407 -133 q148 -130 197 -335 q49 -205 11 -434 q-22 -128 -80.5 -255 q-58.5 -127 -159.5 -210 q-101 -83 -250 -79 q-76 1 -136 39 q-60 38 -78 115 q-52 -62 -118.5 -109 q-66.5 -47 -152.5 -45 q-114 3 -165 76 q-51 73 -58.5 173.5 q-7.5 100.5 8.5 186.5 q22 125 87 259.5 q65 134.5 171.5 227 q106.5 92.5 253.5 89.5 q84 -1 151 -30 q67 -29 134 -76 l-133 -568 q-10 -54 -7.5 -123.5 q2.5 -69.5 80.5 -73.5 q96 -4 157 66 q61 70 94.5 165.5 q33.5 95.5 45.5 169.5 q33 188 8.5 359.5 q-24.5 171.5 -135 281.5 q-110.5 110 -334.5 113 q-226 4 -395 -114.5 q-169 -118.5 -275.5 -306 q-106.5 -187.5 -144.5 -389.5 q-35 -183 -11 -358 q24 -175 133.5 -290 q109.5 -115 330.5 -117 q171 -2 338 72 l29 -139 ZM683 415 q-8 -43 -13 -106 q-5 -63 14.5 -113.5 q19.5 -50.5 84.5 -52.5 q69 -3 125.5 59.5 q56.5 62.5 77.5 118.5 l130 499 q-43 17 -84 18 q-108 4 -176 -67 q-68 -71 -105.5 -171.5 q-37.5 -100.5 -53.5 -184.5 Z" /><glyph glyph-name="A" unicode="a" d="M-92 0 l786 1456 l222 0 l283 -1456 l-248 0 l-56 340 l-546 0 l-174 -340 l-267 0 ZM453 543 l408 0 l-99 604 l-309 -604 Z" /><glyph glyph-name="B" unicode="b" d="M1120 432 q-16 -224 -177.5 -329 q-161.5 -105 -369.5 -103 l-533 0 l252 1456 l470 -1 q183 -4 318 -90.5 q135 -86.5 119 -293.5 q-9 -119 -82 -195.5 q-73 -76.5 -176 -122.5 q101 -37 143.5 -128 q42.5 -91 35.5 -193 ZM503 1253 l-71 -409 l229 -2 q104 1 188.5 52 q84.5 51 100.5 163 q14 105 -41.5 149 q-55.5 44 -153.5 46 l-252 1 ZM876 434 q29 214 -180 222 l-296 1 l-79 -455 l260 -1 q110 0 194.5 59 q84.5 59 100.5 174 Z" /><glyph glyph-name="C" unicode="c" d="M948 473 l240 3 q-34 -234 -205 -367.5 q-171 -133.5 -404 -128.5 q-192 4 -301.5 106.5 q-109.5 102.5 -148 259 q-38.5 156.5 -17.5 323.5 l17 118 q27 181 113 339.5 q86 158.5 229.5 256 q143.5 97.5 342.5 93.5 q230 -4 349.5 -143 q119.5 -139 128.5 -359 l-245 0 q-4 127 -54.5 210.5 q-50.5 83.5 -190.5 88.5 q-136 4 -223.5 -69 q-87.5 -73 -135 -186 q-47.5 -113 -64.5 -229 l-17 -121 q-13 -96 -8 -207.5 q5 -111.5 57 -192 q52 -80.5 180 -85.5 q149 -5 235.5 73.5 q86.5 78.5 121.5 216.5 Z" /><glyph glyph-name="D" unicode="d" d="M40 0 l252 1456 l402 -1 q197 -4 321 -100 q124 -96 176 -251 q52 -155 32 -337 l-9 -75 q-26 -199 -126.5 -355.5 q-100.5 -156.5 -261 -247 q-160.5 -90.5 -365.5 -89.5 l-421 0 ZM688 1252 l-185 1 l-182 -1051 l147 -1 q220 -1 344.5 142 q124.5 143 154.5 348 l11 76 q15 115 -1.5 225 q-16.5 110 -83.5 183 q-67 73 -205 77 Z" /><glyph glyph-name="E" unicode="e" d="M40 0 l252 1456 l919 0 l-36 -203 l-672 0 l-70 -403 l581 0 l-35 -199 l-580 0 l-78 -449 l679 0 l-35 -202 l-925 0 Z" /><glyph glyph-name="F" unicode="f" d="M40 0 l252 1456 l899 0 l-36 -203 l-652 0 l-75 -434 l569 0 l-36 -202 l-568 0 l-107 -617 l-246 0 Z" /><glyph glyph-name="G" unicode="g" d="M1251 747 l-85 -557 q-93 -122 -249.5 -167 q-156.5 -45 -301.5 -43 q-197 3 -314 104.5 q-117 101.5 -161 260.5 q-44 159 -22 335 l13 95 q27 186 111 347.5 q84 161.5 227.5 259.5 q143.5 98 349.5 94 q222 -4 344.5 -127 q122.5 -123 138.5 -340 l-240 1 q-9 117 -67.5 188 q-58.5 71 -182.5 75 q-140 5 -229 -70 q-89 -75 -137 -191 q-48 -116 -65 -235 l-14 -98 q-13 -104 -1.5 -218 q11.5 -114 72.5 -194.5 q61 -80.5 195 -83.5 q79 -2 152 17 q73 19 135 70 l54 286 l-291 0 l34 191 l534 0 Z" /><glyph glyph-name="H" unicode="h" d="M916 0 l112 648 l-629 0 l-113 -648 l-246 0 l253 1456 l246 0 l-106 -606 l630 0 l105 606 l247 0 l-252 -1456 l-247 0 Z" /><glyph glyph-name="I" unicode="i" d="M553 1456 l-253 -1456 l-246 0 l253 1456 l246 0 Z" /><glyph glyph-name="J" unicode="j" d="M697 435 l174 1021 l246 0 l-174 -1020 q-29 -207 -171 -334 q-142 -127 -355 -123 q-201 4 -310 120.5 q-109 116.5 -99 317.5 l247 -1 q-6 -97 32 -164 q38 -67 145 -70 q114 -4 181 72.5 q67 76.5 84 180.5 Z" /><glyph glyph-name="K" unicode="k" d="M878 0 l-314 628 l-201 -184 l-77 -444 l-246 0 l253 1456 l246 0 l-117 -670 l152 157 l504 513 l316 0 l-648 -655 l408 -801 l-276 0 Z" /><glyph glyph-name="L" unicode="l" d="M964 202 l-36 -202 l-888 0 l253 1456 l246 0 l-218 -1254 l643 0 Z" /><glyph glyph-name="M" unicode="m" d="M819 342 l599 1114 l325 0 l-252 -1456 l-246 0 l85 493 l128 605 l-600 -1098 l-177 0 l-223 1134 l-91 -667 l-81 -467 l-246 0 l252 1456 l314 0 l213 -1114 Z" /><glyph glyph-name="N" unicode="n" d="M1415 1456 l-253 -1456 l-239 0 l-456 1043 l-181 -1043 l-246 0 l252 1456 l239 0 l457 -1046 l181 1046 l246 0 Z" /><glyph glyph-name="O" unicode="o" d="M1300 764 l-10 -72 q-25 -184 -111.5 -348.5 q-86.5 -164.5 -232.5 -266 q-146 -101.5 -349 -97.5 q-197 4 -309.5 110.5 q-112.5 106.5 -152.5 268 q-40 161.5 -19 332.5 l9 73 q26 182 113 346.5 q87 164.5 233.5 267 q146.5 102.5 348.5 98.5 q197 -4 309.5 -110 q112.5 -106 151.5 -268 q39 -162 19 -334 ZM1043 691 l10 77 q13 100 5.5 215 q-7.5 115 -63.5 197.5 q-56 82.5 -188 87.5 q-138 5 -228 -72.5 q-90 -77.5 -139.5 -195.5 q-49.5 -118 -66.5 -234 l-10 -76 q-13 -99 -4.5 -214.5 q8.5 -115.5 64.5 -199.5 q56 -84 186 -89 q140 -5 229.5 72.5 q89.5 77.5 138.5 195.5 q49 118 66 236 Z" /><glyph glyph-name="P" unicode="p" d="M689 540 l-309 1 l-94 -541 l-246 0 l252 1456 l527 -1 q201 -4 333.5 -123 q132.5 -119 114.5 -331 q-20 -235 -188.5 -348 q-168.5 -113 -389.5 -113 ZM503 1253 l-88 -509 l284 -2 q124 0 214 64 q90 64 107 194 q14 110 -41 179 q-55 69 -167 73 l-309 1 Z" /><glyph glyph-name="Q" unicode="q" d="M1145 -115 l-174 -137 l-255 244 q-70 -12 -127 -11 q-196 3 -308 109.5 q-112 106.5 -151.5 269 q-39.5 162.5 -19.5 331.5 l10 73 q25 182 112 346.5 q87 164.5 233.5 267 q146.5 102.5 348.5 98.5 q197 -4 309.5 -110 q112.5 -106 152 -268 q39.5 -162 18.5 -334 l-10 -73 q-26 -182 -108 -342 q-82 -160 -240 -262 l209 -202 ZM1037 691 l11 77 q13 100 5 215 q-8 115 -64 197.5 q-56 82.5 -187 87.5 q-138 5 -228 -72.5 q-90 -77.5 -139.5 -195.5 q-49.5 -118 -66.5 -234 l-10 -76 q-12 -99 -4 -214.5 q8 -115.5 63.5 -199.5 q55.5 -84 186.5 -89 q140 -5 229.5 72.5 q89.5 77.5 138 195.5 q48.5 118 65.5 236 Z" /><glyph glyph-name="R" unicode="r" d="M848 0 l-185 561 l-279 0 l-98 -561 l-246 0 l252 1456 l483 -1 q201 -4 333.5 -109 q132.5 -105 114.5 -321 q-13 -152 -101 -253 q-88 -101 -226 -155 l215 -602 l-1 -15 l-262 0 ZM503 1253 l-85 -489 l239 -2 q119 1 210.5 64.5 q91.5 63.5 107.5 187.5 q15 112 -40 173 q-55 61 -166 65 l-266 1 Z" /><glyph glyph-name="S" unicode="s" d="M843 383 q17 116 -67.5 165 q-84.5 49 -176.5 81 q-101 36 -196 90.5 q-95 54.5 -154 138.5 q-59 84 -50 207 q10 140 94.5 232 q84.5 92 208 136.5 q123.5 44.5 249.5 42.5 q199 -4 330.5 -122.5 q131.5 -118.5 124.5 -323.5 l-246 1 q14 239 -224 244 q-101 2 -188.5 -49 q-87.5 -51 -102.5 -160 q-10 -69 30 -113 q40 -44 101 -70 q61 -26 113 -44 q109 -38 204 -94.5 q95 -56.5 150.5 -143.5 q55.5 -87 45.5 -216 q-11 -143 -95 -233.5 q-84 -90.5 -207 -132.5 q-123 -42 -252 -39 q-206 3 -354 123 q-148 120 -141 338 l247 -1 q-8 -128 63 -193 q71 -65 196 -67 q102 -2 191 45.5 q89 47.5 106 157.5 Z" /><glyph glyph-name="T" unicode="t" d="M156 1253 l36 203 l1122 0 l-36 -203 l-439 0 l-217 -1253 l-247 0 l218 1253 l-437 0 Z" /><glyph glyph-name="U" unicode="u" d="M1080 1456 l247 0 l-165 -972 q-33 -235 -199 -372.5 q-166 -137.5 -403 -133.5 q-223 4 -352 141.5 q-129 137.5 -103 363.5 l165 973 l245 0 l-165 -974 q-16 -126 36 -211 q52 -85 188 -89 q143 -5 231 79 q88 84 109 222 l166 973 Z" /><glyph glyph-name="V" unicode="v" d="M1409 1456 l-736 -1456 l-239 0 l-279 1456 l262 0 l177 -1136 l535 1136 l280 0 Z" /><glyph glyph-name="W" unicode="w" d="M1850 1456 l-553 -1456 l-237 0 l-101 1059 l-440 -1059 l-237 0 l-98 1456 l239 0 l48 -1084 l439 1084 l207 0 l95 -1093 l387 1093 l251 0 Z" /><glyph glyph-name="X" unicode="x" d="M462 1456 l214 -525 l377 525 l298 0 l-549 -733 l319 -723 l-274 0 l-220 534 l-388 -534 l-300 0 l561 746 l-310 710 l272 0 Z" /><glyph glyph-name="Y" unicode="y" d="M423 1456 l204 -687 l444 687 l286 0 l-642 -933 l-91 -523 l-248 0 l96 549 l-310 907 l261 0 Z" /><glyph glyph-name="Z" unicode="z" d="M196 1253 l35 203 l1024 0 l-30 -172 l-910 -1082 l747 0 l-36 -202 l-1053 0 l31 176 l910 1077 l-718 0 Z" /><glyph glyph-name="bracketleft" unicode="[" d="M695 1679 l-31 -190 l-160 0 l-254 -1624 l161 0 l-30 -190 l-398 0 l313 2004 l399 0 Z" /><glyph glyph-name="backslash" unicode="\" d="M488 -125 l-316 1581 l224 0 l316 -1581 l-224 0 Z" /><glyph glyph-name="bracketright" unicode="]" d="M151 1489 l30 190 l398 0 l-313 -2004 l-399 0 l30 190 l161 0 l254 1624 l-161 0 Z" /><glyph glyph-name="asciicircum" unicode="^" d="M68 729 l416 727 l168 0 l163 -727 l-191 0 l-91 461 l-253 -461 l-212 0 Z" /><glyph glyph-name="underscore" unicode="_" d="M791 0 l-34 -192 l-892 0 l34 192 l892 0 Z" /><glyph glyph-name="grave" unicode="`" d="M456 1536 l143 -302 l-181 0 l-216 302 l254 0 Z" /><glyph glyph-name="a" unicode="a" d="M656 0 q-7 26 -8.5 51 q-1.5 25 0.5 51 q-61 -57 -133.5 -90 q-72.5 -33 -157.5 -32 q-135 2 -230.5 88.5 q-95.5 86.5 -88.5 227.5 q7 139 87.5 219 q80.5 80 198.5 113.5 q118 33.5 238 33.5 l156 -1 l13 73 q11 79 -24.5 131 q-35.5 52 -119.5 54 q-73 1 -131.5 -37 q-58.5 -38 -73.5 -111 l-236 -2 q7 114 80.5 189 q73.5 75 178 110.5 q104.5 35.5 206.5 33.5 q166 -3 270.5 -100.5 q104.5 -97.5 87.5 -271.5 l-79 -481 q-9 -56 -12 -115.5 q-3 -59.5 15 -115.5 l-1 -18 l-236 0 ZM413 174 q75 -2 139 35 q64 37 109 95 l37 205 l-113 1 q-96 -1 -193.5 -39 q-97.5 -38 -112.5 -151 q-8 -67 30 -106 q38 -39 104 -40 Z" /><glyph glyph-name="b" unicode="b" d="M1031 531 q-16 -133 -72 -261.5 q-56 -128.5 -158 -211 q-102 -82.5 -256 -79.5 q-83 2 -154.5 36 q-71.5 34 -118.5 104 l-38 -119 l-217 0 l266 1536 l237 0 l-108 -560 q121 129 288 125 q149 -3 225.5 -89 q76.5 -86 99 -211.5 q22.5 -125.5 9.5 -247.5 l-3 -22 ZM628 905 q-80 2 -139.5 -37.5 q-59.5 -39.5 -102.5 -102.5 l-77 -446 q46 -136 188 -141 q99 -3 160.5 51 q61.5 54 93.5 137 q32 83 43 166 l3 21 q8 69 4 150.5 q-4 81.5 -42 140 q-38 58.5 -131 61.5 Z" /><glyph glyph-name="c" unicode="c" d="M484 174 q87 -2 150.5 49.5 q63.5 51.5 83.5 133.5 l223 1 q-18 -173 -158 -277.5 q-140 -104.5 -307 -100.5 q-155 2 -249.5 79 q-94.5 77 -133.5 199.5 q-39 122.5 -26 262.5 l4 36 q16 148 84.5 273.5 q68.5 125.5 185 200.5 q116.5 75 275.5 71 q180 -4 283 -118 q103 -114 102 -290 l-221 0 q-1 85 -43.5 147.5 q-42.5 62.5 -134.5 66.5 q-99 3 -160.5 -50.5 q-61.5 -53.5 -93.5 -135.5 q-32 -82 -42 -165 l-4 -36 q-8 -72 -1 -152 q7 -80 48 -136.5 q41 -56.5 135 -58.5 Z" /><glyph glyph-name="d" unicode="d" d="M681 0 l17 113 q-126 -137 -297 -133 q-143 3 -220 90.5 q-77 87.5 -102 213 q-25 125.5 -13 242.5 l2 22 q17 133 74.5 262 q57.5 129 160.5 212.5 q103 83.5 257 79.5 q165 -4 259 -121 l104 555 l238 0 l-267 -1536 l-213 0 ZM303 527 q-8 -68 -2.5 -148 q5.5 -80 44 -138.5 q38.5 -58.5 129.5 -61.5 q77 -3 135 35 q58 38 101 98 l82 464 q-48 125 -183 130 q-98 3 -161.5 -52.5 q-63.5 -55.5 -97.5 -139 q-34 -83.5 -45 -166.5 l-2 -21 Z" /><glyph glyph-name="e" unicode="e" d="M925 182 q-71 -103 -185 -153.5 q-114 -50.5 -237 -48.5 q-223 3 -337 156 q-114 153 -97 364 l3 42 q15 145 84.5 274.5 q69.5 129.5 186.5 209.5 q117 80 274 76 q152 -3 241 -79.5 q89 -76.5 122.5 -197.5 q33.5 -121 18.5 -257 l-14 -103 l-682 0 q-8 -112 45.5 -199 q53.5 -87 175.5 -90 q85 -3 155 34 q70 37 126 98 l120 -126 ZM605 908 q-118 4 -183 -82 q-65 -86 -98 -183 l447 -1 l4 21 q14 93 -26.5 167.5 q-40.5 74.5 -143.5 77.5 Z" /><glyph glyph-name="f" unicode="f" d="M706 903 l-212 0 l-157 -903 l-238 0 l157 903 l-161 0 l32 179 l160 0 l14 103 q22 173 132 275.5 q110 102.5 288 99.5 q36 -1 71.5 -6.5 q35.5 -5.5 70.5 -13.5 l-26 -190 q-52 10 -90 10 q-175 1 -206 -175 l-16 -103 l213 0 l-32 -179 Z" /><glyph glyph-name="g" unicode="g" d="M911 30 q-30 -213 -177.5 -337.5 q-147.5 -124.5 -363.5 -118.5 q-109 3 -211.5 49 q-102.5 46 -167.5 134 l125 142 q98 -131 249 -135 q125 -3 205.5 68.5 q80.5 71.5 106.5 189.5 l17 76 q-124 -121 -284 -117 q-145 3 -223.5 89.5 q-78.5 86.5 -104.5 211.5 q-26 125 -14 244 l2 22 q17 135 76 264 q59 129 164 211.5 q105 82.5 259 78.5 q81 -2 151 -32 q70 -30 118 -97 l36 110 l217 -1 l-180 -1052 ZM306 527 q-8 -69 -1 -149 q7 -80 46.5 -138 q39.5 -58 130.5 -61 q76 -3 134 32.5 q58 35.5 102 94.5 l83 476 q-50 119 -183 123 q-99 3 -163.5 -51.5 q-64.5 -54.5 -100 -138.5 q-35.5 -84 -46.5 -167 l-2 -21 Z" /><glyph glyph-name="h" unicode="h" d="M623 905 q-76 2 -134.5 -35.5 q-58.5 -37.5 -103.5 -95.5 l-135 -774 l-236 0 l266 1536 l237 0 l-110 -574 q62 65 138.5 103 q76.5 38 168.5 36 q177 -2 239.5 -123.5 q62.5 -121.5 46.5 -280.5 l-117 -697 l-237 0 l118 700 q10 85 -18 143.5 q-28 58.5 -123 61.5 Z" /><glyph glyph-name="i" unicode="i" d="M254 1360 q-1 58 37 95.5 q38 37.5 96 38.5 q56 1 95.5 -33.5 q39.5 -34.5 39.5 -92.5 q0 -58 -38 -95.5 q-38 -37.5 -95 -38.5 q-57 -1 -96 33.5 q-39 34.5 -39 92.5 ZM456 1082 l-188 -1082 l-237 0 l188 1082 l237 0 Z" /><glyph glyph-name="j" unicode="j" d="M243 1360 q0 58 38 95.5 q38 37.5 95 38.5 q57 1 96 -33.5 q39 -34.5 39 -92.5 q1 -58 -37.5 -95.5 q-38.5 -37.5 -95.5 -38.5 q-56 -1 -95.5 33.5 q-39.5 34.5 -39.5 92.5 ZM214 1082 l237 0 l-199 -1177 q-19 -154 -108.5 -250.5 q-89.5 -96.5 -252.5 -94.5 q-34 0 -68 5.5 q-34 5.5 -68 13.5 l20 191 q21 -4 42.5 -7 q21.5 -3 43.5 -3 q69 -1 104.5 39.5 q35.5 40.5 46.5 104.5 l202 1178 Z" /><glyph glyph-name="k" unicode="k" d="M678 0 l-229 464 l-136 -120 l-59 -344 l-237 0 l266 1536 l237 0 l-152 -872 l83 85 l344 333 l304 -1 l-481 -461 l317 -620 l-257 0 Z" /><glyph glyph-name="l" unicode="l" d="M535 1536 l-267 -1536 l-237 0 l267 1536 l237 0 Z" /><glyph glyph-name="m" unicode="m" d="M613 905 q-72 1 -126.5 -31 q-54.5 -32 -96.5 -88 l-137 -786 l-236 0 l187 1082 l221 1 l-21 -115 q133 138 321 134 q86 -2 158.5 -40.5 q72.5 -38.5 101.5 -124.5 q69 78 154.5 122.5 q85.5 44.5 190.5 42.5 q178 -3 243.5 -121.5 q65.5 -118.5 48.5 -279.5 l-117 -701 l-237 0 l118 703 q10 89 -20.5 145 q-30.5 56 -127.5 57 q-83 2 -140 -44.5 q-57 -46.5 -92 -117.5 q-2 -15 -3 -22 l-124 -721 l-238 0 l118 701 q10 86 -20.5 144 q-30.5 58 -125.5 60 Z" /><glyph glyph-name="n" unicode="n" d="M622 905 q-75 2 -133.5 -36.5 q-58.5 -38.5 -102.5 -95.5 l-135 -773 l-237 0 l187 1082 l223 1 l-23 -126 q63 69 143 107.5 q80 38.5 176 37.5 q176 -3 236 -124 q60 -121 44 -278 l-117 -700 l-237 0 l118 703 q10 86 -18.5 143 q-28.5 57 -123.5 59 Z" /><glyph glyph-name="o" unicode="o" d="M67 524 l3 21 q16 149 86.5 277.5 q70.5 128.5 189.5 206 q119 77.5 280 73.5 q154 -3 251.5 -81.5 q97.5 -78.5 139.5 -202.5 q42 -124 29 -265 l-2 -21 q-17 -149 -88 -276 q-71 -127 -190 -203.5 q-119 -76.5 -279 -72.5 q-153 3 -250.5 80 q-97.5 77 -139.5 200 q-42 123 -30 264 ZM306 545 l-2 -22 q-8 -73 3 -153.5 q11 -80.5 55 -136.5 q44 -56 137 -59 q99 -3 163 52 q64 55 99 139 q35 84 45 167 l2 21 q8 73 -2.5 154.5 q-10.5 81.5 -54.5 139.5 q-44 58 -137 61 q-99 3 -163.5 -53.5 q-64.5 -56.5 -99.5 -141.5 q-35 -85 -45 -168 Z" /><glyph glyph-name="p" unicode="p" d="M544 -21 q-78 2 -146.5 31 q-68.5 29 -119.5 89 l-97 -515 l-237 0 l260 1498 l216 1 l-18 -111 q125 133 297 130 q148 -4 224.5 -90 q76.5 -86 99 -211.5 q22.5 -125.5 10.5 -246.5 l-3 -23 q-16 -132 -72.5 -260.5 q-56.5 -128.5 -159 -211.5 q-102.5 -83 -254.5 -80 ZM621 905 q-74 2 -131 -32.5 q-57 -34.5 -101 -92.5 l-84 -480 q48 -122 184 -126 q98 -3 161 52.5 q63 55.5 97 139.5 q34 84 45 166 l3 21 q7 68 1.5 149.5 q-5.5 81.5 -44.5 140.5 q-39 59 -131 62 Z" /><glyph glyph-name="q" unicode="q" d="M1081 1082 l-260 -1498 l-237 0 l98 510 q-120 -117 -278 -114 q-146 3 -223.5 90 q-77.5 87 -102 212.5 q-24.5 125.5 -12.5 244.5 l2 22 q17 136 74.5 264.5 q57.5 128.5 161 210.5 q103.5 82 258.5 78 q80 -2 149 -32.5 q69 -30.5 118 -95.5 l37 109 l215 -1 ZM303 528 q-8 -68 -2 -149.5 q6 -81.5 44.5 -141 q38.5 -59.5 129.5 -62.5 q74 -3 131 31.5 q57 34.5 101 90.5 l86 493 q-51 115 -181 118 q-99 3 -162.5 -52.5 q-63.5 -55.5 -98 -140 q-34.5 -84.5 -46.5 -166.5 l-2 -21 Z" /><glyph glyph-name="r" unicode="r" d="M632 870 q-159 2 -249 -129 l-130 -741 l-236 0 l187 1082 l225 1 l-24 -123 q46 65 108 105.5 q62 40.5 145 39.5 q23 0 45.5 -4 q22.5 -4 44.5 -9 l-24 -232 q-23 4 -46 7 q-23 3 -46 3 Z" /><glyph glyph-name="s" unicode="s" d="M663 300 q14 81 -57 110 q-71 29 -131 44 q-80 21 -159.5 56.5 q-79.5 35.5 -131 97 q-51.5 61.5 -47.5 159.5 q5 112 72 187 q67 75 166 112.5 q99 37.5 199 35.5 q158 -2 274 -89.5 q116 -87.5 114 -255.5 l-235 1 q1 74 -42 117 q-43 43 -118 44 q-68 1 -128.5 -34 q-60.5 -35 -71.5 -107 q-11 -75 58 -100.5 q69 -25.5 123 -38.5 q85 -22 166.5 -58 q81.5 -36 133.5 -99 q52 -63 47 -167 q-5 -117 -76 -192 q-71 -75 -174.5 -110 q-103.5 -35 -206.5 -33 q-162 3 -285.5 96.5 q-123.5 93.5 -122.5 266.5 l229 -1 q2 -177 188 -179 q68 0 136 30.5 q68 30.5 80 106.5 Z" /><glyph glyph-name="t" unicode="t" d="M514 3 q-69 -23 -148 -22 q-135 2 -190 90.5 q-55 88.5 -44 212.5 l101 619 l-174 0 l32 179 l173 0 l46 263 l237 0 l-46 -263 l185 0 l-31 -179 l-185 0 l-103 -607 q-5 -50 10 -80 q15 -30 69 -32 q22 0 43 2.5 q21 2.5 43 6.5 l-18 -190 Z" /><glyph glyph-name="u" unicode="u" d="M660 0 l21 107 q-122 -131 -308 -127 q-175 3 -241 123.5 q-66 120.5 -50 279.5 l117 699 l237 0 l-118 -702 q-8 -75 15 -136 q23 -61 110 -65 q157 -5 253 124 l136 779 l237 0 l-187 -1082 l-222 0 Z" /><glyph glyph-name="v" unicode="v" d="M1038 1082 l-533 -1082 l-206 0 l-198 1082 l237 0 l105 -770 l342 770 l253 0 Z" /><glyph glyph-name="w" unicode="w" d="M1529 1082 l-475 -1082 l-195 0 l-95 740 l-350 -740 l-195 0 l-99 1082 l224 0 l41 -733 l341 733 l180 0 l87 -747 l297 747 l239 0 Z" /><glyph glyph-name="x" unicode="x" d="M372 1082 l140 -354 l255 354 l276 0 l-413 -543 l241 -539 l-249 0 l-151 369 l-266 -369 l-276 0 l427 561 l-233 521 l249 0 Z" /><glyph glyph-name="y" unicode="y" d="M411 -165 q-53 -113 -140 -194.5 q-87 -81.5 -222 -80.5 q-32 1 -62.5 6.5 q-30.5 5.5 -60.5 12.5 l20 188 q10 -1 20.5 -2.5 q10.5 -1.5 20.5 -1.5 q87 -3 142 35 q55 38 94 113 l57 108 l-180 1063 l247 0 l93 -733 l341 733 l262 0 l-632 -1247 Z" /><glyph glyph-name="z" unicode="z" d="M139 886 l35 196 l822 0 l-29 -165 l-654 -722 l549 0 l-34 -195 l-853 0 l30 171 l649 715 l-515 0 Z" /><glyph glyph-name="braceleft" unicode="{" d="M195 310 q10 91 -19.5 151 q-29.5 60 -127.5 67 l17 178 q104 4 159.5 64 q55.5 60 70.5 159 l28 203 q25 187 130.5 301 q105.5 114 285.5 167 l35 -143 q-109 -39 -160 -127.5 q-51 -88.5 -68 -197.5 l-27 -203 q-28 -214 -219 -315 q73 -54 99 -135.5 q26 -81.5 17 -169.5 l-27 -204 q-12 -97 4.5 -189 q16.5 -92 117.5 -136 l-56 -138 q-161 53 -233.5 175 q-72.5 122 -54.5 289 l28 204 Z" /><glyph glyph-name="bar" unicode="|" d="M467 1456 l-270 -1726 l-165 0 l270 1726 l165 0 Z" /><glyph glyph-name="braceright" unicode="}" d="M477 928 q-10 -91 19.5 -151 q29.5 -60 127.5 -67 l-18 -178 q-103 -4 -159 -64.5 q-56 -60.5 -70 -158.5 l-28 -203 q-25 -187 -130.5 -301.5 q-105.5 -114.5 -285.5 -167.5 l-35 144 q109 39 159.5 127.5 q50.5 88.5 66.5 197.5 l28 203 q28 217 229 315 q-78 52 -106.5 133.5 q-28.5 81.5 -19.5 171.5 l27 204 q12 97 -4.5 189 q-16.5 92 -116.5 136 l55 137 q162 -53 234.5 -174.5 q72.5 -121.5 54.5 -288.5 l-28 -204 Z" /><glyph glyph-name="asciitilde" unicode="~" d="M1050 785 l176 4 q-7 -99 -48.5 -192.5 q-41.5 -93.5 -118.5 -152.5 q-77 -59 -188 -57 q-83 1 -147.5 40 q-64.5 39 -120.5 96 q-32 33 -69 62 q-37 29 -86 29 q-81 2 -119.5 -59 q-38.5 -61 -49.5 -129 l-188 -1 q13 149 103 272.5 q90 123.5 257 119.5 q81 -2 147 -41 q66 -39 122 -95 q31 -33 68 -62 q37 -29 85 -30 q82 -1 123.5 63 q41.5 64 53.5 133 Z" /><glyph glyph-name="cent" unicode="¢" d="M957 358 q-17 -155 -130 -248.5 q-113 -93.5 -258 -120.5 l-47 -234 l-196 0 l48 237 q-183 46 -244 202.5 q-61 156.5 -44 325.5 l5 37 q24 201 139.5 350.5 q115.5 149.5 321.5 185.5 l46 225 l195 0 l-46 -226 q144 -35 211.5 -146 q67.5 -111 66.5 -252 l-223 0 q1 85 -41 147.5 q-42 62.5 -134 65.5 q-99 4 -161.5 -49.5 q-62.5 -53.5 -95.5 -135.5 q-33 -82 -44 -165 l-4 -36 q-8 -71 -3 -151 q5 -80 44.5 -137 q39.5 -57 133.5 -59 q87 -2 152 49 q65 51 84 134 l224 1 Z" /><glyph glyph-name="sterling" unicode="£" d="M-2 0 l22 202 l79 -3 q64 25 89.5 88.5 q25.5 63.5 35.5 126.5 l25 185 l-158 0 l35 199 l151 0 l30 241 q23 197 161.5 319.5 q138.5 122.5 338.5 117.5 q183 -4 282.5 -113.5 q99.5 -109.5 92.5 -290.5 l-239 1 q5 85 -32 142 q-37 57 -129 59 q-100 3 -159 -71 q-59 -74 -71 -165 l-29 -240 l302 0 l-35 -199 l-294 0 l-23 -177 q-18 -129 -106 -223 l679 3 l-36 -202 l-1012 0 Z" /><glyph glyph-name="yen" unicode="¥" d="M890 301 l-293 0 l-53 -301 l-246 0 l52 301 l-299 0 l27 151 l298 0 l25 138 l-300 0 l27 152 l246 0 l-208 714 l253 0 l148 -606 l358 606 l275 0 l-455 -714 l222 0 l-27 -152 l-293 0 l-25 -138 l295 0 l-27 -151 Z" /><glyph glyph-name="dieresis" unicode="¨" d="M210 1363 q1 52 36 87 q35 35 87 36 q51 1 87.5 -32 q36.5 -33 36.5 -85 q0 -52 -36 -86 q-36 -34 -87 -35 q-51 -1 -87.5 31 q-36.5 32 -36.5 84 ZM654 1362 q0 52 35 87 q35 35 87 36 q51 1 88 -32 q37 -33 36 -85 q0 -52 -36 -86 q-36 -34 -87 -35 q-51 -1 -87.5 31 q-36.5 32 -35.5 84 Z" /><glyph glyph-name="copyright" unicode="©" d="M104 722 q22 199 131.5 372 q109.5 173 281 279.5 q171.5 106.5 378.5 102.5 q199 -3 337.5 -110.5 q138.5 -107.5 204.5 -276 q66 -168.5 45 -354.5 q-21 -198 -130.5 -372 q-109.5 -174 -281 -281 q-171.5 -107 -379.5 -103 q-199 3 -337.5 111 q-138.5 108 -204 277.5 q-65.5 169.5 -45.5 354.5 ZM224 722 q-20 -152 28 -292.5 q48 -140.5 158 -231.5 q110 -91 276 -94 q174 -4 319 85.5 q145 89.5 239.5 235.5 q94.5 146 116.5 311 q21 152 -27 291.5 q-48 139.5 -158 230 q-110 90.5 -275 93.5 q-175 4 -320 -85 q-145 -89 -239.5 -234 q-94.5 -145 -117.5 -310 ZM929 595 l151 1 q-12 -150 -104.5 -234 q-92.5 -84 -245.5 -80 q-162 4 -235 121.5 q-73 117.5 -61 265.5 l12 119 q17 157 115 274 q98 117 268 114 q146 -3 224.5 -87 q78.5 -84 74.5 -228 l-152 1 q5 81 -28 129.5 q-33 48.5 -120 50.5 q-108 1 -162 -79 q-54 -80 -66 -174 l-14 -121 q-8 -82 18 -164.5 q26 -82.5 127 -86.5 q90 -4 137 45 q47 49 61 133 Z" /><glyph glyph-name="guillemotleft" unicode="«" d="M295 138 l-223 388 l1 21 l340 391 l181 0 l-320 -412 l165 -387 l-144 -1 ZM644 138 l-223 388 l1 21 l340 391 l181 0 l-320 -412 l165 -387 l-144 -1 Z" /><glyph glyph-name="registered" unicode="®" d="M104 722 q22 199 131.5 372 q109.5 173 281 279 q171.5 106 378.5 103 q199 -3 337.5 -110.5 q138.5 -107.5 204.5 -276 q66 -168.5 45 -354.5 q-21 -198 -130.5 -372 q-109.5 -174 -281 -281 q-171.5 -107 -379.5 -103 q-199 3 -337.5 111 q-138.5 108 -204 277.5 q-65.5 169.5 -45.5 354.5 ZM224 722 q-20 -152 28 -292.5 q48 -140.5 158 -231.5 q110 -91 276 -94 q174 -4 319 85.5 q145 89.5 239.5 235.5 q94.5 146 116.5 311 q21 152 -27 291.5 q-48 139.5 -158 230 q-110 90.5 -275 93.5 q-175 4 -320 -85 q-145 -89 -239.5 -234 q-94.5 -145 -117.5 -310 ZM807 651 l-164 2 l-53 -337 l-148 0 l133 850 l260 -1 q116 -3 204.5 -61.5 q88.5 -58.5 81.5 -189.5 q-4 -70 -45 -115 q-41 -45 -98 -78 q53 -34 68 -90 q15 -56 10 -116 l-6 -56 q-4 -33 -3 -63.5 q1 -30.5 4 -62.5 l-1 -18 l-149 0 q-5 37 -3 73 q2 36 6 73 l7 55 q6 63 -16 97.5 q-22 34.5 -88 37.5 ZM702 1033 l-39 -246 l130 -1 q59 2 115.5 30 q56.5 28 68.5 93 q14 75 -29.5 98.5 q-43.5 23.5 -107.5 24.5 l-138 1 Z" /><glyph glyph-name="acute" unicode="´" d="M201 1234 l237 302 l285 0 l-316 -302 l-206 0 Z" /><glyph glyph-name="cedilla" unicode="¸" d="M26 3 l174 1 l-21 -58 q124 -29 122 -163 q-2 -94 -57.5 -143.5 q-55.5 -49.5 -136 -68.5 q-80.5 -19 -156.5 -21 l7 140 q48 2 95.5 21 q47.5 19 56.5 75 q9 55 -40.5 64.5 q-49.5 9.5 -87.5 13.5 l44 139 Z" /><glyph glyph-name="guillemotright" unicode="»" d="M301 938 l223 -388 l-1 -21 l-340 -391 l-180 0 l320 412 l-166 387 l144 1 ZM663 938 l223 -388 l-1 -21 l-340 -391 l-180 0 l320 412 l-166 387 l144 1 Z" /><glyph glyph-name="AE" unicode="æ" d="M1754 196 l-35 -196 l-871 0 l46 341 l-480 0 l-239 -341 l-296 0 l1062 1456 l972 0 l-34 -196 l-628 0 l-55 -409 l534 0 l-35 -196 l-524 0 l-61 -459 l644 0 ZM563 555 l359 0 l85 636 l-444 -636 Z" /><glyph glyph-name="ae" unicode="æ" d="M1516 98 q-77 -65 -184 -92 q-107 -27 -205 -26 q-102 1 -199 37.5 q-97 36.5 -157 122.5 q-173 -166 -426 -161 q-148 3 -241.5 87 q-93.5 84 -84.5 238 q8 133 85.5 207 q77.5 74 190.5 103.5 q113 29.5 226 29.5 l192 -1 l13 72 q10 75 -20.5 132.5 q-30.5 57.5 -114.5 59.5 q-77 3 -142 -36.5 q-65 -39.5 -78 -118.5 l-237 18 q10 119 83 193 q73 74 178 108 q105 34 211 32 q85 -2 170 -30 q85 -28 136 -102 q72 63 157 98 q85 35 183 33 q210 -6 300 -151 q90 -145 67 -339 l-21 -141 l-669 0 q-13 -118 38.5 -205 q51.5 -87 181.5 -90 q85 -2 160.5 24.5 q75.5 26.5 149.5 65.5 l57 -168 ZM1236 908 q-119 4 -186 -81.5 q-67 -85.5 -102 -184.5 l437 0 l6 32 q15 90 -18.5 160.5 q-33.5 70.5 -136.5 73.5 ZM400 164 q68 -1 132.5 30 q64.5 31 117.5 71 l40 211 l-168 1 q-84 -1 -167 -41.5 q-83 -40.5 -97 -135.5 q-10 -69 34 -102 q44 -33 108 -34 Z" /><glyph glyph-name="OE" unicode="&#x152;" d="M1714 202 l-35 -202 l-826 0 q-71 -4 -141.5 -12 q-70.5 -8 -141.5 -7 q-167 3 -280 85.5 q-113 82.5 -164 216.5 q-51 134 -30 293 l48 303 q37 255 211.5 427.5 q174.5 172.5 440.5 171.5 q70 0 140 -8.5 q70 -8.5 140 -13.5 l850 0 l-36 -203 l-672 0 l-70 -403 l581 0 l-35 -199 l-580 0 l-78 -449 l678 0 ZM332 575 q-12 -96 3.5 -186 q15.5 -90 73 -149.5 q57.5 -59.5 170.5 -62.5 q51 -2 101.5 1.5 q50.5 3.5 101.5 8.5 l197 1082 q-47 7 -95 11.5 q-48 4.5 -96 5.5 q-180 1 -281 -118.5 q-101 -119.5 -127 -285.5 l-48 -307 Z" /><glyph glyph-name="oe" unicode="&#x153;" d="M1619 106 q-78 -71 -185 -99.5 q-107 -28.5 -209 -27.5 q-102 2 -197.5 43.5 q-95.5 41.5 -151.5 130.5 q-80 -84 -178.5 -130 q-98.5 -46 -216.5 -44 q-153 3 -247.5 82.5 q-94.5 79.5 -133 203.5 q-38.5 124 -23.5 262 l2 22 q19 149 90 276 q71 127 189.5 204 q118.5 77 279.5 74 q102 -2 196 -44 q94 -42 149 -132 q75 79 168 128.5 q93 49.5 206 46.5 q210 -4 301.5 -148 q91.5 -144 67.5 -339 l-22 -144 l-656 0 q-11 -106 32.5 -198.5 q43.5 -92.5 166.5 -96.5 q84 -3 160 22.5 q76 25.5 148 68.5 l64 -161 ZM1340 909 q-111 3 -173.5 -84.5 q-62.5 -87.5 -96.5 -175.5 l423 -1 l6 29 q14 89 -22.5 159 q-36.5 70 -136.5 73 ZM316 544 l-2 -21 q-8 -72 -1 -152 q7 -80 48 -138 q41 -58 134 -61 q99 -3 163 52.5 q64 55.5 99 140 q35 84.5 46 167.5 l2 21 q8 72 0.5 153.5 q-7.5 81.5 -49 140 q-41.5 58.5 -134.5 61.5 q-100 3 -163.5 -53.5 q-63.5 -56.5 -97.5 -142 q-34 -85.5 -45 -168.5 Z" /><glyph glyph-name="circumflex" unicode="&#x2c6;" d="M695 1537 l233 -274 l0 -17 l-185 3 l-117 155 l-173 -154 l-193 -4 l0 19 l298 272 l137 0 Z" /><glyph glyph-name="ring" unicode="&#x2da;" d="M251 1362 q1 92 68 155 q67 63 157 62 q84 0 144.5 -58 q60.5 -58 60.5 -143 q-1 -92 -68.5 -153 q-67.5 -61 -157.5 -60 q-83 0 -143.5 56 q-60.5 56 -60.5 141 ZM357 1364 q-5 -42 19.5 -73.5 q24.5 -31.5 67.5 -31.5 q48 0 86 35 q38 35 44 82 q6 43 -18 75.5 q-24 32.5 -69 32.5 q-49 0 -86 -36.5 q-37 -36.5 -44 -83.5 Z" /><glyph glyph-name="tilde" unicode="&#x2dc;" d="M825 1524 l142 -10 q-8 -98 -66 -179.5 q-58 -81.5 -167 -80.5 q-75 1 -130.5 48.5 q-55.5 47.5 -126.5 45.5 q-46 -2 -70.5 -33.5 q-24.5 -31.5 -34.5 -71.5 l-150 8 q9 98 68 181.5 q59 83.5 169 81.5 q72 -1 129 -48.5 q57 -47.5 129 -45.5 q46 2 71.5 33 q25.5 31 36.5 71 Z" /><glyph glyph-name="endash" unicode="&#x2013;" d="M1187 818 l-42 -196 l-989 0 l42 196 l989 0 Z" /><glyph glyph-name="emdash" unicode="&#x2014;" d="M1506 818 l-56 -196 l-1319 0 l56 196 l1319 0 Z" /><glyph glyph-name="quoteleft" unicode="&#x2018;" d="M176 1057 l21 135 q17 111 79.5 207 q62.5 96 150.5 164 l119 -79 q-49 -67 -86 -137 q-37 -70 -52 -152 l-24 -138 l-208 0 Z" /><glyph glyph-name="quoteright" unicode="&#x2019;" d="M511 1536 l-23 -141 q-17 -111 -79.5 -207 q-62.5 -96 -150.5 -164 l-119 79 q49 67 86 137.5 q37 70.5 52 152.5 l26 143 l208 0 Z" /><glyph glyph-name="quotesinglbase" unicode="&#x201a;" d="M279 203 l-22 -130 q-17 -111 -78 -207 q-61 -96 -148 -165 l-123 81 q49 66 84 136.5 q35 70.5 49 151.5 l24 133 l214 0 Z" /><glyph glyph-name="quotedblleft" unicode="&#x201c;" d="M185 1057 l21 135 q17 111 79.5 207 q62.5 96 150.5 164 l119 -79 q-49 -67 -86 -137 q-37 -70 -52 -152 l-24 -138 l-208 0 ZM511 1057 l21 135 q17 111 79.5 207 q62.5 96 150.5 164 l119 -79 q-49 -67 -86 -137 q-37 -70 -52 -152 l-24 -138 l-208 0 Z" /><glyph glyph-name="quotedblright" unicode="&#x201d;" d="M524 1536 l-23 -141 q-17 -111 -79.5 -207 q-62.5 -96 -150.5 -164 l-119 79 q49 67 86 137.5 q37 70.5 52 152.5 l26 143 l208 0 ZM848 1536 l-23 -141 q-17 -111 -79.5 -207 q-62.5 -96 -150.5 -164 l-119 79 q49 67 86 137.5 q37 70.5 52 152.5 l26 143 l208 0 Z" /><glyph glyph-name="quotedblbase" unicode="&#x201e;" d="M287 255 l-30 -181 q-38 -236 -227 -393 l-126 81 q51 71 86.5 146.5 q35.5 75.5 51.5 161.5 l32 185 l213 0 ZM604 255 l-31 -182 q-18 -115 -79 -217 q-61 -102 -150 -175 l-126 80 q50 72 87.5 147 q37.5 75 53.5 162 l32 185 l213 0 Z" /><glyph glyph-name="ellipsis" unicode="&#x2026;" d="M53 118 q0 60 38.5 99.5 q38.5 39.5 98.5 40.5 q58 2 98 -35.5 q40 -37.5 40 -96.5 q1 -59 -38.5 -98.5 q-39.5 -39.5 -98.5 -40.5 q-59 -2 -98.5 35 q-39.5 37 -39.5 96 ZM496 118 q0 60 38.5 99.5 q38.5 39.5 98.5 40.5 q58 2 98 -35.5 q40 -37.5 40 -96.5 q1 -59 -38.5 -98.5 q-39.5 -39.5 -98.5 -40.5 q-59 -2 -98.5 35 q-39.5 37 -39.5 96 ZM924 118 q0 60 38.5 99.5 q38.5 39.5 98.5 40.5 q58 2 98 -35.5 q40 -37.5 40 -96.5 q1 -59 -38.5 -98.5 q-39.5 -39.5 -98.5 -40.5 q-59 -2 -98.5 35 q-39.5 37 -39.5 96 Z" /><glyph glyph-name="guilsinglleft" unicode="&#x2039;" d="M316 138 l-223 388 l1 21 l340 391 l181 0 l-320 -412 l165 -387 l-144 -1 Z" /><glyph glyph-name="guilsinglright" unicode="&#x203a;" d="M292 938 l223 -388 l-1 -21 l-340 -391 l-180 0 l320 412 l-166 387 l144 1 Z" /><glyph glyph-name="Euro" unicode="&#x20ac;" d="M946 8 q-120 -28 -239 -26 q-238 4 -361.5 159 q-123.5 155 -91.5 388 l-176 -1 l25 140 l166 0 l23 129 l-167 0 l24 140 l160 0 q60 241 217 391.5 q157 150.5 417 148.5 q61 -1 121 -10 q60 -9 119 -22 l-50 -205 q-93 34 -189 36 q-164 3 -255.5 -95 q-91.5 -98 -132.5 -244 l353 0 l-25 -140 l-345 0 l-23 -129 l346 0 l-25 -140 l-339 0 q-17 -136 32.5 -238 q49.5 -102 202.5 -106 q52 -1 103.5 7.5 q51.5 8.5 101.5 23.5 l8 -207 Z" /><glyph glyph-name="trademark" unicode="&#x2122;" d="M1025 917 l62 353 l-174 -352 l-59 -2 l-62 382 l-67 -381 l-108 0 l94 539 l129 0 l57 -378 l195 378 l135 0 l-94 -539 l-108 0 ZM640 1456 l-17 -95 l-133 0 l-77 -443 l-116 0 l77 443 l-136 0 l17 95 l385 0 Z" /><glyph glyph-name="Agrave" unicode="à" d="M-92 0 l786 1456 l222 0 l283 -1456 l-248 0 l-56 340 l-546 0 l-174 -340 l-267 0 ZM453 543 l408 0 l-99 604 l-309 -604 ZM803 1846 l143 -302 l-181 0 l-216 302 l254 0 Z" /><glyph glyph-name="Aacute" unicode="á" d="M-92 0 l786 1456 l222 0 l283 -1456 l-248 0 l-56 340 l-546 0 l-174 -340 l-267 0 ZM453 543 l408 0 l-99 604 l-309 -604 ZM702 1544 l237 302 l285 0 l-316 -302 l-206 0 Z" /><glyph glyph-name="Acircumflex" unicode="â" d="M-92 0 l786 1456 l222 0 l283 -1456 l-248 0 l-56 340 l-546 0 l-174 -340 l-267 0 ZM453 543 l408 0 l-99 604 l-309 -604 ZM937 1847 l233 -274 l0 -17 l-185 3 l-117 155 l-173 -154 l-193 -4 l0 19 l298 272 l137 0 Z" /><glyph glyph-name="Adieresis" unicode="ä" d="M-92 0 l786 1456 l222 0 l283 -1456 l-248 0 l-56 340 l-546 0 l-174 -340 l-267 0 ZM453 543 l408 0 l-99 604 l-309 -604 ZM506 1673 q1 52 36 87 q35 35 87 36 q51 1 87.5 -32 q36.5 -33 36.5 -85 q0 -52 -36 -86 q-36 -34 -87 -35 q-51 -1 -87.5 31 q-36.5 32 -36.5 84 ZM950 1672 q0 52 35 87 q35 35 87 36 q51 1 88 -32 q37 -33 36 -85 q0 -52 -36 -86 q-36 -34 -87 -35 q-51 -1 -87.5 31 q-36.5 32 -35.5 84 Z" /><glyph glyph-name="Ccedilla" unicode="ç" d="M948 473 l240 3 q-34 -234 -205 -367.5 q-171 -133.5 -404 -128.5 q-192 4 -301.5 106.5 q-109.5 102.5 -148 259 q-38.5 156.5 -17.5 323.5 l17 118 q27 181 113 339.5 q86 158.5 229.5 256 q143.5 97.5 342.5 93.5 q230 -4 349.5 -143 q119.5 -139 128.5 -359 l-245 0 q-4 127 -54.5 210.5 q-50.5 83.5 -190.5 88.5 q-136 4 -223.5 -69 q-87.5 -73 -135 -186 q-47.5 -113 -64.5 -229 l-17 -121 q-13 -96 -8 -207.5 q5 -111.5 57 -192 q52 -80.5 180 -85.5 q149 -5 235.5 73.5 q86.5 78.5 121.5 216.5 ZM468 -4 l174 1 l-21 -58 q124 -29 122 -163 q-2 -94 -57.5 -143.5 q-55.5 -49.5 -136 -68.5 q-80.5 -19 -156.5 -21 l7 140 q48 2 95.5 21 q47.5 19 56.5 75 q9 55 -40.5 64.5 q-49.5 9.5 -87.5 13.5 l44 139 Z" /><glyph glyph-name="Egrave" unicode="è" d="M40 0 l252 1456 l919 0 l-36 -203 l-672 0 l-70 -403 l581 0 l-35 -199 l-580 0 l-78 -449 l679 0 l-35 -202 l-925 0 ZM748 1854 l143 -302 l-181 0 l-216 302 l254 0 Z" /><glyph glyph-name="Eacute" unicode="é" d="M40 0 l252 1456 l919 0 l-36 -203 l-672 0 l-70 -403 l581 0 l-35 -199 l-580 0 l-78 -449 l679 0 l-35 -202 l-925 0 ZM647 1552 l237 302 l285 0 l-316 -302 l-206 0 Z" /><glyph glyph-name="Ecircumflex" unicode="ê" d="M40 0 l252 1456 l919 0 l-36 -203 l-672 0 l-70 -403 l581 0 l-35 -199 l-580 0 l-78 -449 l679 0 l-35 -202 l-925 0 ZM882 1855 l233 -274 l0 -17 l-185 3 l-117 155 l-173 -154 l-193 -4 l0 19 l298 272 l137 0 Z" /><glyph glyph-name="Edieresis" unicode="ë" d="M40 0 l252 1456 l919 0 l-36 -203 l-672 0 l-70 -403 l581 0 l-35 -199 l-580 0 l-78 -449 l679 0 l-35 -202 l-925 0 ZM451 1681 q1 52 36 87 q35 35 87 36 q51 1 87.5 -32 q36.5 -33 36.5 -85 q0 -52 -36 -86 q-36 -34 -87 -35 q-51 -1 -87.5 31 q-36.5 32 -36.5 84 ZM895 1680 q0 52 35 87 q35 35 87 36 q51 1 88 -32 q37 -33 36 -85 q0 -52 -36 -86 q-36 -34 -87 -35 q-51 -1 -87.5 31 q-36.5 32 -35.5 84 Z" /><glyph glyph-name="Igrave" unicode="ì" d="M553 1456 l-253 -1456 l-246 0 l253 1456 l246 0 ZM420 1854 l143 -302 l-181 0 l-216 302 l254 0 Z" /><glyph glyph-name="Iacute" unicode="í" d="M553 1456 l-253 -1456 l-246 0 l253 1456 l246 0 ZM319 1552 l237 302 l285 0 l-316 -302 l-206 0 Z" /><glyph glyph-name="Icircumflex" unicode="î" d="M553 1456 l-253 -1456 l-246 0 l253 1456 l246 0 ZM554 1855 l233 -274 l0 -17 l-185 3 l-117 155 l-173 -154 l-193 -4 l0 19 l298 272 l137 0 Z" /><glyph glyph-name="Idieresis" unicode="ï" d="M553 1456 l-253 -1456 l-246 0 l253 1456 l246 0 ZM123 1681 q1 52 36 87 q35 35 87 36 q51 1 87.5 -32 q36.5 -33 36.5 -85 q0 -52 -36 -86 q-36 -34 -87 -35 q-51 -1 -87.5 31 q-36.5 32 -36.5 84 ZM567 1680 q0 52 35 87 q35 35 87 36 q51 1 88 -32 q37 -33 36 -85 q0 -52 -36 -86 q-36 -34 -87 -35 q-51 -1 -87.5 31 q-36.5 32 -35.5 84 Z" /><glyph glyph-name="Ograve" unicode="ò" d="M1300 764 l-10 -72 q-25 -184 -111.5 -348.5 q-86.5 -164.5 -232.5 -266 q-146 -101.5 -349 -97.5 q-197 4 -309.5 110.5 q-112.5 106.5 -152.5 268 q-40 161.5 -19 332.5 l9 73 q26 182 113 346.5 q87 164.5 233.5 267 q146.5 102.5 348.5 98.5 q197 -4 309.5 -110 q112.5 -106 151.5 -268 q39 -162 19 -334 ZM1043 691 l10 77 q13 100 5.5 215 q-7.5 115 -63.5 197.5 q-56 82.5 -188 87.5 q-138 5 -228 -72.5 q-90 -77.5 -139.5 -195.5 q-49.5 -118 -66.5 -234 l-10 -76 q-13 -99 -4.5 -214.5 q8.5 -115.5 64.5 -199.5 q56 -84 186 -89 q140 -5 229.5 72.5 q89.5 77.5 138.5 195.5 q49 118 66 236 ZM825 1846 l143 -302 l-181 0 l-216 302 l254 0 Z" /><glyph glyph-name="Oacute" unicode="ó" d="M1300 764 l-10 -72 q-25 -184 -111.5 -348.5 q-86.5 -164.5 -232.5 -266 q-146 -101.5 -349 -97.5 q-197 4 -309.5 110.5 q-112.5 106.5 -152.5 268 q-40 161.5 -19 332.5 l9 73 q26 182 113 346.5 q87 164.5 233.5 267 q146.5 102.5 348.5 98.5 q197 -4 309.5 -110 q112.5 -106 151.5 -268 q39 -162 19 -334 ZM1043 691 l10 77 q13 100 5.5 215 q-7.5 115 -63.5 197.5 q-56 82.5 -188 87.5 q-138 5 -228 -72.5 q-90 -77.5 -139.5 -195.5 q-49.5 -118 -66.5 -234 l-10 -76 q-13 -99 -4.5 -214.5 q8.5 -115.5 64.5 -199.5 q56 -84 186 -89 q140 -5 229.5 72.5 q89.5 77.5 138.5 195.5 q49 118 66 236 ZM724 1544 l237 302 l285 0 l-316 -302 l-206 0 Z" /><glyph glyph-name="Ocircumflex" unicode="ô" d="M1300 764 l-10 -72 q-25 -184 -111.5 -348.5 q-86.5 -164.5 -232.5 -266 q-146 -101.5 -349 -97.5 q-197 4 -309.5 110.5 q-112.5 106.5 -152.5 268 q-40 161.5 -19 332.5 l9 73 q26 182 113 346.5 q87 164.5 233.5 267 q146.5 102.5 348.5 98.5 q197 -4 309.5 -110 q112.5 -106 151.5 -268 q39 -162 19 -334 ZM1043 691 l10 77 q13 100 5.5 215 q-7.5 115 -63.5 197.5 q-56 82.5 -188 87.5 q-138 5 -228 -72.5 q-90 -77.5 -139.5 -195.5 q-49.5 -118 -66.5 -234 l-10 -76 q-13 -99 -4.5 -214.5 q8.5 -115.5 64.5 -199.5 q56 -84 186 -89 q140 -5 229.5 72.5 q89.5 77.5 138.5 195.5 q49 118 66 236 ZM959 1847 l233 -274 l0 -17 l-185 3 l-117 155 l-173 -154 l-193 -4 l0 19 l298 272 l137 0 Z" /><glyph glyph-name="Odieresis" unicode="ö" d="M1300 764 l-10 -72 q-25 -184 -111.5 -348.5 q-86.5 -164.5 -232.5 -266 q-146 -101.5 -349 -97.5 q-197 4 -309.5 110.5 q-112.5 106.5 -152.5 268 q-40 161.5 -19 332.5 l9 73 q26 182 113 346.5 q87 164.5 233.5 267 q146.5 102.5 348.5 98.5 q197 -4 309.5 -110 q112.5 -106 151.5 -268 q39 -162 19 -334 ZM1043 691 l10 77 q13 100 5.5 215 q-7.5 115 -63.5 197.5 q-56 82.5 -188 87.5 q-138 5 -228 -72.5 q-90 -77.5 -139.5 -195.5 q-49.5 -118 -66.5 -234 l-10 -76 q-13 -99 -4.5 -214.5 q8.5 -115.5 64.5 -199.5 q56 -84 186 -89 q140 -5 229.5 72.5 q89.5 77.5 138.5 195.5 q49 118 66 236 ZM528 1673 q1 52 36 87 q35 35 87 36 q51 1 87.5 -32 q36.5 -33 36.5 -85 q0 -52 -36 -86 q-36 -34 -87 -35 q-51 -1 -87.5 31 q-36.5 32 -36.5 84 ZM972 1672 q0 52 35 87 q35 35 87 36 q51 1 88 -32 q37 -33 36 -85 q0 -52 -36 -86 q-36 -34 -87 -35 q-51 -1 -87.5 31 q-36.5 32 -35.5 84 Z" /><glyph glyph-name="Ugrave" unicode="ù" d="M1080 1456 l247 0 l-165 -972 q-33 -235 -199 -372.5 q-166 -137.5 -403 -133.5 q-223 4 -352 141.5 q-129 137.5 -103 363.5 l165 973 l245 0 l-165 -974 q-16 -126 36 -211 q52 -85 188 -89 q143 -5 231 79 q88 84 109 222 l166 973 ZM785 1846 l143 -302 l-181 0 l-216 302 l254 0 Z" /><glyph glyph-name="Uacute" unicode="ú" d="M1080 1456 l247 0 l-165 -972 q-33 -235 -199 -372.5 q-166 -137.5 -403 -133.5 q-223 4 -352 141.5 q-129 137.5 -103 363.5 l165 973 l245 0 l-165 -974 q-16 -126 36 -211 q52 -85 188 -89 q143 -5 231 79 q88 84 109 222 l166 973 ZM684 1544 l237 302 l285 0 l-316 -302 l-206 0 Z" /><glyph glyph-name="Ucircumflex" unicode="û" d="M1080 1456 l247 0 l-165 -972 q-33 -235 -199 -372.5 q-166 -137.5 -403 -133.5 q-223 4 -352 141.5 q-129 137.5 -103 363.5 l165 973 l245 0 l-165 -974 q-16 -126 36 -211 q52 -85 188 -89 q143 -5 231 79 q88 84 109 222 l166 973 ZM919 1847 l233 -274 l0 -17 l-185 3 l-117 155 l-173 -154 l-193 -4 l0 19 l298 272 l137 0 Z" /><glyph glyph-name="Udieresis" unicode="ü" d="M1080 1456 l247 0 l-165 -972 q-33 -235 -199 -372.5 q-166 -137.5 -403 -133.5 q-223 4 -352 141.5 q-129 137.5 -103 363.5 l165 973 l245 0 l-165 -974 q-16 -126 36 -211 q52 -85 188 -89 q143 -5 231 79 q88 84 109 222 l166 973 ZM489 1673 q1 52 36 87 q35 35 87 36 q51 1 87.5 -32 q36.5 -33 36.5 -85 q0 -52 -36 -86 q-36 -34 -87 -35 q-51 -1 -87.5 31 q-36.5 32 -36.5 84 ZM933 1672 q0 52 35 87 q35 35 87 36 q51 1 88 -32 q37 -33 36 -85 q0 -52 -36 -86 q-36 -34 -87 -35 q-51 -1 -87.5 31 q-36.5 32 -35.5 84 Z" /><glyph glyph-name="Yacute" unicode="ý" d="M423 1456 l204 -687 l444 687 l286 0 l-642 -933 l-91 -523 l-248 0 l96 549 l-310 907 l261 0 ZM646 1544 l237 302 l285 0 l-316 -302 l-206 0 Z" /><glyph glyph-name="agrave" unicode="à" d="M656 0 q-7 26 -8.5 51 q-1.5 25 0.5 51 q-61 -57 -133.5 -90 q-72.5 -33 -157.5 -32 q-135 2 -230.5 88.5 q-95.5 86.5 -88.5 227.5 q7 139 87.5 219 q80.5 80 198.5 113.5 q118 33.5 238 33.5 l156 -1 l13 73 q11 79 -24.5 131 q-35.5 52 -119.5 54 q-73 1 -131.5 -37 q-58.5 -38 -73.5 -111 l-236 -2 q7 114 80.5 189 q73.5 75 178 110.5 q104.5 35.5 206.5 33.5 q166 -3 270.5 -100.5 q104.5 -97.5 87.5 -271.5 l-79 -481 q-9 -56 -12 -115.5 q-3 -59.5 15 -115.5 l-1 -18 l-236 0 ZM413 174 q75 -2 139 35 q64 37 109 95 l37 205 l-113 1 q-96 -1 -193.5 -39 q-97.5 -38 -112.5 -151 q-8 -67 30 -106 q38 -39 104 -40 ZM635 1536 l143 -302 l-181 0 l-216 302 l254 0 Z" /><glyph glyph-name="acircumflex" unicode="â" d="M656 0 q-7 26 -8.5 51 q-1.5 25 0.5 51 q-61 -57 -133.5 -90 q-72.5 -33 -157.5 -32 q-135 2 -230.5 88.5 q-95.5 86.5 -88.5 227.5 q7 139 87.5 219 q80.5 80 198.5 113.5 q118 33.5 238 33.5 l156 -1 l13 73 q11 79 -24.5 131 q-35.5 52 -119.5 54 q-73 1 -131.5 -37 q-58.5 -38 -73.5 -111 l-236 -2 q7 114 80.5 189 q73.5 75 178 110.5 q104.5 35.5 206.5 33.5 q166 -3 270.5 -100.5 q104.5 -97.5 87.5 -271.5 l-79 -481 q-9 -56 -12 -115.5 q-3 -59.5 15 -115.5 l-1 -18 l-236 0 ZM413 174 q75 -2 139 35 q64 37 109 95 l37 205 l-113 1 q-96 -1 -193.5 -39 q-97.5 -38 -112.5 -151 q-8 -67 30 -106 q38 -39 104 -40 ZM769 1537 l233 -274 l0 -17 l-185 3 l-117 155 l-173 -154 l-193 -4 l0 19 l298 272 l137 0 Z" /><glyph glyph-name="adieresis" unicode="ä" d="M656 0 q-7 26 -8.5 51 q-1.5 25 0.5 51 q-61 -57 -133.5 -90 q-72.5 -33 -157.5 -32 q-135 2 -230.5 88.5 q-95.5 86.5 -88.5 227.5 q7 139 87.5 219 q80.5 80 198.5 113.5 q118 33.5 238 33.5 l156 -1 l13 73 q11 79 -24.5 131 q-35.5 52 -119.5 54 q-73 1 -131.5 -37 q-58.5 -38 -73.5 -111 l-236 -2 q7 114 80.5 189 q73.5 75 178 110.5 q104.5 35.5 206.5 33.5 q166 -3 270.5 -100.5 q104.5 -97.5 87.5 -271.5 l-79 -481 q-9 -56 -12 -115.5 q-3 -59.5 15 -115.5 l-1 -18 l-236 0 ZM413 174 q75 -2 139 35 q64 37 109 95 l37 205 l-113 1 q-96 -1 -193.5 -39 q-97.5 -38 -112.5 -151 q-8 -67 30 -106 q38 -39 104 -40 ZM338 1363 q1 52 36 87 q35 35 87 36 q51 1 87.5 -32 q36.5 -33 36.5 -85 q0 -52 -36 -86 q-36 -34 -87 -35 q-51 -1 -87.5 31 q-36.5 32 -36.5 84 ZM782 1362 q0 52 35 87 q35 35 87 36 q51 1 88 -32 q37 -33 36 -85 q0 -52 -36 -86 q-36 -34 -87 -35 q-51 -1 -87.5 31 q-36.5 32 -35.5 84 Z" /><glyph glyph-name="ccedilla" unicode="ç" d="M484 174 q87 -2 150.5 49.5 q63.5 51.5 83.5 133.5 l223 1 q-18 -173 -158 -277.5 q-140 -104.5 -307 -100.5 q-155 2 -249.5 79 q-94.5 77 -133.5 199.5 q-39 122.5 -26 262.5 l4 36 q16 148 84.5 273.5 q68.5 125.5 185 200.5 q116.5 75 275.5 71 q180 -4 283 -118 q103 -114 102 -290 l-221 0 q-1 85 -43.5 147.5 q-42.5 62.5 -134.5 66.5 q-99 3 -160.5 -50.5 q-61.5 -53.5 -93.5 -135.5 q-32 -82 -42 -165 l-4 -36 q-8 -72 -1 -152 q7 -80 48 -136.5 q41 -56.5 135 -58.5 ZM343 -4 l174 1 l-21 -58 q124 -29 122 -163 q-2 -94 -57.5 -143.5 q-55.5 -49.5 -136 -68.5 q-80.5 -19 -156.5 -21 l7 140 q48 2 95.5 21 q47.5 19 56.5 75 q9 55 -40.5 64.5 q-49.5 9.5 -87.5 13.5 l44 139 Z" /><glyph glyph-name="egrave" unicode="è" d="M925 182 q-71 -103 -185 -153.5 q-114 -50.5 -237 -48.5 q-223 3 -337 156 q-114 153 -97 364 l3 42 q15 145 84.5 274.5 q69.5 129.5 186.5 209.5 q117 80 274 76 q152 -3 241 -79.5 q89 -76.5 122.5 -197.5 q33.5 -121 18.5 -257 l-14 -103 l-682 0 q-8 -112 45.5 -199 q53.5 -87 175.5 -90 q85 -3 155 34 q70 37 126 98 l120 -126 ZM605 908 q-118 4 -183 -82 q-65 -86 -98 -183 l447 -1 l4 21 q14 93 -26.5 167.5 q-40.5 74.5 -143.5 77.5 ZM611 1536 l143 -302 l-181 0 l-216 302 l254 0 Z" /><glyph glyph-name="eacute" unicode="é" d="M925 182 q-71 -103 -185 -153.5 q-114 -50.5 -237 -48.5 q-223 3 -337 156 q-114 153 -97 364 l3 42 q15 145 84.5 274.5 q69.5 129.5 186.5 209.5 q117 80 274 76 q152 -3 241 -79.5 q89 -76.5 122.5 -197.5 q33.5 -121 18.5 -257 l-14 -103 l-682 0 q-8 -112 45.5 -199 q53.5 -87 175.5 -90 q85 -3 155 34 q70 37 126 98 l120 -126 ZM605 908 q-118 4 -183 -82 q-65 -86 -98 -183 l447 -1 l4 21 q14 93 -26.5 167.5 q-40.5 74.5 -143.5 77.5 ZM510 1234 l237 302 l285 0 l-316 -302 l-206 0 Z" /><glyph glyph-name="ecircumflex" unicode="ê" d="M925 182 q-71 -103 -185 -153.5 q-114 -50.5 -237 -48.5 q-223 3 -337 156 q-114 153 -97 364 l3 42 q15 145 84.5 274.5 q69.5 129.5 186.5 209.5 q117 80 274 76 q152 -3 241 -79.5 q89 -76.5 122.5 -197.5 q33.5 -121 18.5 -257 l-14 -103 l-682 0 q-8 -112 45.5 -199 q53.5 -87 175.5 -90 q85 -3 155 34 q70 37 126 98 l120 -126 ZM605 908 q-118 4 -183 -82 q-65 -86 -98 -183 l447 -1 l4 21 q14 93 -26.5 167.5 q-40.5 74.5 -143.5 77.5 ZM745 1537 l233 -274 l0 -17 l-185 3 l-117 155 l-173 -154 l-193 -4 l0 19 l298 272 l137 0 Z" /><glyph glyph-name="edieresis" unicode="ë" d="M925 182 q-71 -103 -185 -153.5 q-114 -50.5 -237 -48.5 q-223 3 -337 156 q-114 153 -97 364 l3 42 q15 145 84.5 274.5 q69.5 129.5 186.5 209.5 q117 80 274 76 q152 -3 241 -79.5 q89 -76.5 122.5 -197.5 q33.5 -121 18.5 -257 l-14 -103 l-682 0 q-8 -112 45.5 -199 q53.5 -87 175.5 -90 q85 -3 155 34 q70 37 126 98 l120 -126 ZM605 908 q-118 4 -183 -82 q-65 -86 -98 -183 l447 -1 l4 21 q14 93 -26.5 167.5 q-40.5 74.5 -143.5 77.5 ZM315 1363 q1 52 36 87 q35 35 87 36 q51 1 87.5 -32 q36.5 -33 36.5 -85 q0 -52 -36 -86 q-36 -34 -87 -35 q-51 -1 -87.5 31 q-36.5 32 -36.5 84 ZM759 1362 q0 52 35 87 q35 35 87 36 q51 1 88 -32 q37 -33 36 -85 q0 -52 -36 -86 q-36 -34 -87 -35 q-51 -1 -87.5 31 q-36.5 32 -35.5 84 Z" /><glyph glyph-name="igrave" unicode="ì" d="M460 1082 l-188 -1082 l-237 0 l188 1082 l237 0 ZM343 1529 l143 -302 l-181 0 l-216 302 l254 0 Z" /><glyph glyph-name="iacute" unicode="í" d="M460 1082 l-188 -1082 l-237 0 l188 1082 l237 0 ZM243 1227 l237 302 l285 0 l-316 -302 l-206 0 Z" /><glyph glyph-name="icircumflex" unicode="î" d="M460 1082 l-188 -1082 l-237 0 l188 1082 l237 0 ZM477 1530 l233 -274 l0 -17 l-185 3 l-117 155 l-173 -154 l-193 -4 l0 19 l298 272 l137 0 Z" /><glyph glyph-name="idieresis" unicode="ï" d="M460 1082 l-188 -1082 l-237 0 l188 1082 l237 0 ZM47 1356 q1 52 36 87 q35 35 87 36 q51 1 87.5 -32 q36.5 -33 36.5 -85 q0 -52 -36 -86 q-36 -34 -87 -35 q-51 -1 -87.5 31 q-36.5 32 -36.5 84 ZM491 1355 q0 52 35 87 q35 35 87 36 q51 1 88 -32 q37 -33 36 -85 q0 -52 -36 -86 q-36 -34 -87 -35 q-51 -1 -87.5 31 q-36.5 32 -35.5 84 Z" /><glyph glyph-name="ograve" unicode="ò" d="M67 524 l3 21 q16 149 86.5 277.5 q70.5 128.5 189.5 206 q119 77.5 280 73.5 q154 -3 251.5 -81.5 q97.5 -78.5 139.5 -202.5 q42 -124 29 -265 l-2 -21 q-17 -149 -88 -276 q-71 -127 -190 -203.5 q-119 -76.5 -279 -72.5 q-153 3 -250.5 80 q-97.5 77 -139.5 200 q-42 123 -30 264 ZM306 545 l-2 -22 q-8 -73 3 -153.5 q11 -80.5 55 -136.5 q44 -56 137 -59 q99 -3 163 52 q64 55 99 139 q35 84 45 167 l2 21 q8 73 -2.5 154.5 q-10.5 81.5 -54.5 139.5 q-44 58 -137 61 q-99 3 -163.5 -53.5 q-64.5 -56.5 -99.5 -141.5 q-35 -85 -45 -168 ZM632 1536 l143 -302 l-181 0 l-216 302 l254 0 Z" /><glyph glyph-name="oacute" unicode="ó" d="M67 524 l3 21 q16 149 86.5 277.5 q70.5 128.5 189.5 206 q119 77.5 280 73.5 q154 -3 251.5 -81.5 q97.5 -78.5 139.5 -202.5 q42 -124 29 -265 l-2 -21 q-17 -149 -88 -276 q-71 -127 -190 -203.5 q-119 -76.5 -279 -72.5 q-153 3 -250.5 80 q-97.5 77 -139.5 200 q-42 123 -30 264 ZM306 545 l-2 -22 q-8 -73 3 -153.5 q11 -80.5 55 -136.5 q44 -56 137 -59 q99 -3 163 52 q64 55 99 139 q35 84 45 167 l2 21 q8 73 -2.5 154.5 q-10.5 81.5 -54.5 139.5 q-44 58 -137 61 q-99 3 -163.5 -53.5 q-64.5 -56.5 -99.5 -141.5 q-35 -85 -45 -168 ZM531 1234 l237 302 l285 0 l-316 -302 l-206 0 Z" /><glyph glyph-name="ocircumflex" unicode="ô" d="M67 524 l3 21 q16 149 86.5 277.5 q70.5 128.5 189.5 206 q119 77.5 280 73.5 q154 -3 251.5 -81.5 q97.5 -78.5 139.5 -202.5 q42 -124 29 -265 l-2 -21 q-17 -149 -88 -276 q-71 -127 -190 -203.5 q-119 -76.5 -279 -72.5 q-153 3 -250.5 80 q-97.5 77 -139.5 200 q-42 123 -30 264 ZM306 545 l-2 -22 q-8 -73 3 -153.5 q11 -80.5 55 -136.5 q44 -56 137 -59 q99 -3 163 52 q64 55 99 139 q35 84 45 167 l2 21 q8 73 -2.5 154.5 q-10.5 81.5 -54.5 139.5 q-44 58 -137 61 q-99 3 -163.5 -53.5 q-64.5 -56.5 -99.5 -141.5 q-35 -85 -45 -168 ZM766 1537 l233 -274 l0 -17 l-185 3 l-117 155 l-173 -154 l-193 -4 l0 19 l298 272 l137 0 Z" /><glyph glyph-name="odieresis" unicode="ö" d="M67 524 l3 21 q16 149 86.5 277.5 q70.5 128.5 189.5 206 q119 77.5 280 73.5 q154 -3 251.5 -81.5 q97.5 -78.5 139.5 -202.5 q42 -124 29 -265 l-2 -21 q-17 -149 -88 -276 q-71 -127 -190 -203.5 q-119 -76.5 -279 -72.5 q-153 3 -250.5 80 q-97.5 77 -139.5 200 q-42 123 -30 264 ZM306 545 l-2 -22 q-8 -73 3 -153.5 q11 -80.5 55 -136.5 q44 -56 137 -59 q99 -3 163 52 q64 55 99 139 q35 84 45 167 l2 21 q8 73 -2.5 154.5 q-10.5 81.5 -54.5 139.5 q-44 58 -137 61 q-99 3 -163.5 -53.5 q-64.5 -56.5 -99.5 -141.5 q-35 -85 -45 -168 ZM335 1363 q1 52 36 87 q35 35 87 36 q51 1 87.5 -32 q36.5 -33 36.5 -85 q0 -52 -36 -86 q-36 -34 -87 -35 q-51 -1 -87.5 31 q-36.5 32 -36.5 84 ZM779 1362 q0 52 35 87 q35 35 87 36 q51 1 88 -32 q37 -33 36 -85 q0 -52 -36 -86 q-36 -34 -87 -35 q-51 -1 -87.5 31 q-36.5 32 -35.5 84 Z" /><glyph glyph-name="ugrave" unicode="ù" d="M660 0 l21 107 q-122 -131 -308 -127 q-175 3 -241 123.5 q-66 120.5 -50 279.5 l117 699 l237 0 l-118 -702 q-8 -75 15 -136 q23 -61 110 -65 q157 -5 253 124 l136 779 l237 0 l-187 -1082 l-222 0 ZM636 1536 l143 -302 l-181 0 l-216 302 l254 0 Z" /><glyph glyph-name="uacute" unicode="ú" d="M660 0 l21 107 q-122 -131 -308 -127 q-175 3 -241 123.5 q-66 120.5 -50 279.5 l117 699 l237 0 l-118 -702 q-8 -75 15 -136 q23 -61 110 -65 q157 -5 253 124 l136 779 l237 0 l-187 -1082 l-222 0 ZM536 1234 l237 302 l285 0 l-316 -302 l-206 0 Z" /><glyph glyph-name="ucircumflex" unicode="û" d="M660 0 l21 107 q-122 -131 -308 -127 q-175 3 -241 123.5 q-66 120.5 -50 279.5 l117 699 l237 0 l-118 -702 q-8 -75 15 -136 q23 -61 110 -65 q157 -5 253 124 l136 779 l237 0 l-187 -1082 l-222 0 ZM771 1537 l233 -274 l0 -17 l-185 3 l-117 155 l-173 -154 l-193 -4 l0 19 l298 272 l137 0 Z" /><glyph glyph-name="udieresis" unicode="ü" d="M660 0 l21 107 q-122 -131 -308 -127 q-175 3 -241 123.5 q-66 120.5 -50 279.5 l117 699 l237 0 l-118 -702 q-8 -75 15 -136 q23 -61 110 -65 q157 -5 253 124 l136 779 l237 0 l-187 -1082 l-222 0 ZM340 1363 q1 52 36 87 q35 35 87 36 q51 1 87.5 -32 q36.5 -33 36.5 -85 q0 -52 -36 -86 q-36 -34 -87 -35 q-51 -1 -87.5 31 q-36.5 32 -36.5 84 ZM784 1362 q0 52 35 87 q35 35 87 36 q51 1 88 -32 q37 -33 36 -85 q0 -52 -36 -86 q-36 -34 -87 -35 q-51 -1 -87.5 31 q-36.5 32 -35.5 84 Z" /><glyph glyph-name="yacute" unicode="ý" d="M411 -165 q-53 -113 -140 -194.5 q-87 -81.5 -222 -80.5 q-32 1 -62.5 6.5 q-30.5 5.5 -60.5 12.5 l20 188 q10 -1 20.5 -2.5 q10.5 -1.5 20.5 -1.5 q87 -3 142 35 q55 38 94 113 l57 108 l-180 1063 l247 0 l93 -733 l341 733 l262 0 l-632 -1247 ZM482 1234 l237 302 l285 0 l-316 -302 l-206 0 Z" /><glyph glyph-name="ydieresis" unicode="ÿ" d="M411 -165 q-53 -113 -140 -194.5 q-87 -81.5 -222 -80.5 q-32 1 -62.5 6.5 q-30.5 5.5 -60.5 12.5 l20 188 q10 -1 20.5 -2.5 q10.5 -1.5 20.5 -1.5 q87 -3 142 35 q55 38 94 113 l57 108 l-180 1063 l247 0 l93 -733 l341 733 l262 0 l-632 -1247 ZM287 1363 q1 52 36 87 q35 35 87 36 q51 1 87.5 -32 q36.5 -33 36.5 -85 q0 -52 -36 -86 q-36 -34 -87 -35 q-51 -1 -87.5 31 q-36.5 32 -36.5 84 ZM731 1362 q0 52 35 87 q35 35 87 36 q51 1 88 -32 q37 -33 36 -85 q0 -52 -36 -86 q-36 -34 -87 -35 q-51 -1 -87.5 31 q-36.5 32 -35.5 84 Z" /><glyph glyph-name="Ydieresis" unicode="&#x178;" d="M423 1456 l204 -687 l444 687 l286 0 l-642 -933 l-91 -523 l-248 0 l96 549 l-310 907 l261 0 ZM450 1673 q1 52 36 87 q35 35 87 36 q51 1 87.5 -32 q36.5 -33 36.5 -85 q0 -52 -36 -86 q-36 -34 -87 -35 q-51 -1 -87.5 31 q-36.5 32 -36.5 84 ZM894 1672 q0 52 35 87 q35 35 87 36 q51 1 88 -32 q37 -33 36 -85 q0 -52 -36 -86 q-36 -34 -87 -35 q-51 -1 -87.5 31 q-36.5 32 -35.5 84 Z" /></font>
</defs>
</svg>
